<?xml version="1.0" encoding="UTF-8"?>
<svg id="uuid-7dc5685b-eb07-4f02-ae96-db0e0c53945d" data-name="Layer 1" xmlns="http://www.w3.org/2000/svg" width="180" height="180" xmlns:xlink="http://www.w3.org/1999/xlink" viewBox="0 0 180 180">
  <defs>
    <style>
      .uuid-0decf3e2-e278-4417-97fa-088858d2bec5 {
        fill: none;
      }

      .uuid-ece0f0d9-e38b-4587-84cb-b228885e2894 {
        clip-path: url(#uuid-e10a7b26-9734-40ca-8a96-a7e119933770);
      }

      .uuid-68867f01-0086-4e8e-a707-61eb3c635989 {
        fill: url(#uuid-d8f22507-d6c5-42a9-9555-34d4f11dd3f7);
      }

      .uuid-b7312067-71fb-4f5c-ae0b-0c80ca8a6ab9 {
        clip-path: url(#uuid-596d40a2-6d22-4889-8ead-289ce3d243e7);
      }

      .uuid-d33df424-776a-4bfb-9456-e593fbfc2c0b {
        clip-path: url(#uuid-4cd4504c-f874-4e3e-bbff-f87fbf1198b9);
      }

      .uuid-87335d7d-090d-4aac-83c4-bedb2d771730 {
        fill: #43fff7;
      }

      .uuid-67c3bdbc-dbf2-42ca-83e2-4a2758d3b86c {
        fill: #0024ff;
      }

      .uuid-4abbbdec-b2b8-42a9-bb49-3ade52712a22 {
        fill: #33eae9;
      }
    </style>
    <clipPath id="uuid-596d40a2-6d22-4889-8ead-289ce3d243e7">
      <rect class="uuid-0decf3e2-e278-4417-97fa-088858d2bec5" x=".2" y=".32" width="180.24" height="180.24" rx="38.15" ry="38.15"/>
    </clipPath>
    <clipPath id="uuid-4cd4504c-f874-4e3e-bbff-f87fbf1198b9">
      <rect class="uuid-0decf3e2-e278-4417-97fa-088858d2bec5" x="-.89" y=".24" width="181.33" height="181.33" rx="26.68" ry="26.68"/>
    </clipPath>
    <clipPath id="uuid-e10a7b26-9734-40ca-8a96-a7e119933770">
      <path class="uuid-67c3bdbc-dbf2-42ca-83e2-4a2758d3b86c" d="M-13.05,96.91c53.78-13.44,63.99-14.35,112.63-7.17,46,6.79,62.44.41,84.85-11.05,22.41-11.47,59.15,12.85,59.15,12.85l-49.3,111.44-215.11,11.05,7.77-117.11Z"/>
    </clipPath>
    <radialGradient id="uuid-d8f22507-d6c5-42a9-9555-34d4f11dd3f7" cx="90" cy="90" fx="90" fy="90" r="90.66" gradientTransform="translate(0 9.9) scale(1 .89)" gradientUnits="userSpaceOnUse">
      <stop offset="0" stop-color="#ffffdc" stop-opacity=".3"/>
      <stop offset=".22" stop-color="#dbe5e0" stop-opacity=".26"/>
      <stop offset=".59" stop-color="#7c9fed" stop-opacity=".15"/>
      <stop offset="1" stop-color="#0045ff" stop-opacity="0"/>
    </radialGradient>
  </defs>
  <g class="uuid-b7312067-71fb-4f5c-ae0b-0c80ca8a6ab9">
    <g>
      <g class="uuid-d33df424-776a-4bfb-9456-e593fbfc2c0b">
        <rect class="uuid-4abbbdec-b2b8-42a9-bb49-3ade52712a22" x="-.89" y=".24" width="181.75" height="94.05"/>
        <g>
          <path class="uuid-67c3bdbc-dbf2-42ca-83e2-4a2758d3b86c" d="M-13.05,96.91c53.78-13.44,63.99-14.35,112.63-7.17,46,6.79,62.44.41,84.85-11.05,22.41-11.47,59.15,12.85,59.15,12.85l-49.3,111.44-215.11,11.05,7.77-117.11Z"/>
          <g class="uuid-ece0f0d9-e38b-4587-84cb-b228885e2894">
            <rect class="uuid-67c3bdbc-dbf2-42ca-83e2-4a2758d3b86c" x="-.89" y="38.36" width="180.99" height="143.19"/>
          </g>
        </g>
      </g>
      <rect class="uuid-68867f01-0086-4e8e-a707-61eb3c635989" x="-.66" y="-.66" width="181.33" height="181.33"/>
      <g>
        <path class="uuid-87335d7d-090d-4aac-83c4-bedb2d771730" d="M87.18,130.87v-.29c-.02-.62-.19-1.19-.48-1.69,0,0,0-.01,0-.01-.16-.27-.35-.51-.58-.73h0s0,0,0,0c-.62-.6-1.46-.95-2.38-.97h-28.09c-1.61,0-2.99,1.27-3,2.88,0,1.94,1.56,2.92,3.5,2.92h24.21s.04.02.04.04c-.66,10.22-10.01,20.12-25.2,20.12-13.78,0-24.99-10.44-24.99-23.27s11.21-23.27,24.99-23.27c2.65,0,5.25.36,7.3,1.01,1.45.46,2.64,1.03,3.62,1.75.85.62,1.64,1.39,2.37,2.29,1.06,1.31,2.86,1.88,4.37,1.14,2.08-1.02,2.59-3.61,1.24-5.32-1.14-1.46-2.44-2.72-3.84-3.75-1.61-1.18-3.46-2.09-5.65-2.79-2.72-.86-6.07-1.33-9.41-1.33-17.64,0-31.99,13.58-31.99,30.27s14.35,30.27,31.99,30.27,31.99-13.27,31.99-29.27Z"/>
        <path class="uuid-87335d7d-090d-4aac-83c4-bedb2d771730" d="M157.16,151.99c-1.81-.21-8.12-1.31-13.02-6.82-3.24-3.65-4.92-7.66-6.27-10.89-.36-.86-.69-1.65-1.03-2.38l.18-.06c6.14-2.3,10.31-7.97,10.31-14.84v-.97c0-7.38-4.06-12.76-11.13-14.75-1.91-.54-4.16-.79-7.08-.79h-25.96c-1.93,0-3.5,1.57-3.5,3.5v51.63c0,1.93,1.57,3.5,3.5,3.5s3.5-1.57,3.5-3.5v-22.83h22.62c.19.31.41.65.65,1.01.39.58.91,1.84,1.47,3.17,1.47,3.51,3.47,8.32,7.49,12.84,6.55,7.37,15.02,8.85,17.46,9.12.13.02.27.02.4.02,1.76,0,3.27-1.32,3.47-3.11.22-1.92-1.16-3.65-3.08-3.87ZM106.67,107.49h22.46c2.26,0,3.91.17,5.18.52,4,1.12,6.02,3.82,6.02,8.01v.97c0,4.85-3.78,9.66-8.85,9.94-.05,0-.08,0-.15,0l-24.67.02v-19.46Z"/>
      </g>
      <path class="uuid-67c3bdbc-dbf2-42ca-83e2-4a2758d3b86c" d="M171.37,43.3c-.67-.15-1.34.28-1.49.95-.74,3.33-2.12,5.35-4.5,6.55-1.36.69-3.07,1.12-5.24,1.33-2.42.23-4.59.69-6.48,1.36-.13-.1-.25-.2-.38-.31.91-1.41,1.71-2.79,2.35-4.06,2.1-4.19.8-6.61-.16-7.68-1.29-1.44-3.36-2-5.04-1.38-1.52.56-2.6,1.61-3.15,3.03-1.17,3.05.49,6.62,1.03,7.64.58,1.1,1.17,2,1.77,2.73-1.66,2.38-3.59,4.81-5.53,6.91-3.9,4.22-7.36,6.67-9.31,6.52-.47-.03-.8-.23-1.08-.64-.81-1.18-1.13-5.33-.22-9.99.12-.61.23-1.2.35-1.78,3.37-.13,4.69-1.56,5.16-2.97.46-1.36.32-2.82-.38-3.91-.53-.83-1.33-1.35-2.21-1.44-2.64-.27-3.69,1.98-4.57,5.74-.71-.07-1.48-.2-2.31-.37-.66-.14-1.25-.27-1.79-.41.79-3.55,1-7.07-.51-8.95-.76-.95-1.89-1.4-3.19-1.27-1.19.12-2.19.7-2.88,1.68-.96,1.35-1.26,3.37-.78,5.4.58,2.47,2.02,3.86,4.37,4.81-.2.7-.43,1.44-.7,2.23-1.79,5.31-5.94,13.86-13.67,11.44-.96-.3-1.87-.82-2.65-1.54.88-.75,1.68-1.49,2.36-2.12,2.92-2.72,6.08-7.42,6.12-11.31.02-1.81-.59-3.34-1.81-4.53-.96-.94-2.87-1.81-5.09-1.18-1.99.56-4.66,2.46-6.12,8.32-1.08,4.34-.46,7.85,1.05,10.39-2.88,2.09-5.81,3.27-8.41,1.63-2.51-1.58-3.27-5.41-3.22-9.98,3.15-5.6,6.54-12.61,8.06-18.23,9.56-.24,17.93-1.71,25.3-4.47.65-.24.97-.96.73-1.61-.24-.65-.96-.98-1.61-.73-6.92,2.59-14.78,4.01-23.76,4.3,1.68-6.35,2.52-9.96,1.29-11.97-.44-.72-1.13-1.2-2.01-1.39-1.03-.22-2.03-.03-2.89.55-2.05,1.4-3.43,4.95-4.86,12.74-2.78-.12-5.65-.32-8.63-.63-.06,0-.12-.01-.19-.02.55-2.36.91-4.39,1.02-5.84.19-2.64.31-4.23-1.53-4.98-.79-.32-1.67-.23-2.49.25-2.02,1.19-3.8,4.8-5.07,10.08-16.01-.31-22.87,3.85-23.19,4.06-.58.37-.76,1.13-.39,1.72.24.38.64.59,1.06.59.22,0,.45-.06.66-.19.07-.05,6.47-3.87,21.33-3.68-.32,1.63-.59,3.39-.81,5.26-.79,6.6-1.24,11.57-1.36,15.34-1.01,1.9-2,3.42-2.92,4.36-3.85,3.96-7.19,5.98-9.64,5.87-2.35-.12-3.89-1.03-4.68-2.79,4.5-2.88,8.83-6.8,9.72-10.84.77-3.48-.72-5.33-1.68-6.13-1.67-1.39-4.23-1.71-6.36-.8-3.7,1.57-7.15,8.13-4.7,16.68-2.15,1.25-4.24,2.23-5.88,2.8-3.98,1.39-8.21.75-12.58-1.89-1.01-.61-2.11-1.46-3.28-2.36l-.16-.12c1.11-4.09,1.85-8.76,2.56-13.3.75-4.75,1.46-9.24,2.51-12.31,1.6-4.7,4.76-6.33,6.51-6.88,2.32-.73,4.78-.45,6.42.74.56.41,1.34.28,1.75-.28.41-.56.28-1.34-.28-1.75-2.27-1.65-5.58-2.07-8.64-1.1-3.78,1.2-6.66,4.2-8.12,8.45-1.12,3.28-1.85,7.87-2.61,12.73-.65,4.12-1.32,8.33-2.26,12.07-3.15-2.24-6.72-4.07-10.12-2.16-4.17,2.35-4.73,6.48-3.43,9.54,1.11,2.62,3.69,4.82,6.85,4.82.66,0,1.35-.1,2.06-.31,2.3-.69,4.48-3.37,5.84-7.17.06-.18.13-.37.19-.55,1.01.77,1.98,1.49,2.92,2.06,5.03,3.05,9.97,3.76,14.7,2.11,1.63-.57,3.73-1.53,5.92-2.77.93,1.87,2.83,3.8,6.71,3.99,3.22.16,7.13-2.07,11.55-6.63.39-.4.78-.87,1.17-1.41.34,4.73,1.68,6.41,3.98,7.37,2.74,1.15,6.3-.44,9.55-4.25.8-.94,2.03-2.73,3.46-5.03.43,3.62,1.65,6.57,4.2,8.17,3.86,2.43,7.96.65,11.27-1.76,1.13,1.13,2.47,1.93,3.86,2.37,7.13,2.24,13.26-2.51,16.79-13.03.24-.73.48-1.49.71-2.26.6.15,1.23.3,1.91.44.83.17,1.59.3,2.29.38-.09.46-.18.93-.28,1.42-.8,4.13-.95,9.62.62,11.89.71,1.04,1.74,1.63,2.96,1.72,3.3.23,7.52-3.33,10.68-6.64.03.72.17,1.44.41,2.15.61,1.78,1.88,3.2,3.57,4,1.78.85,3.9.93,5.82.22,2.16-.79,3.87-2.58,4.58-4.79.72-2.23.36-4.58-1.02-6.61-.79-1.17-1.7-1.88-2.62-2.46,1.19-.29,2.49-.5,3.89-.63,2.48-.24,4.49-.76,6.13-1.59,3.06-1.55,4.91-4.17,5.81-8.24.15-.67-.28-1.34-.95-1.49ZM136.54,48.64s.04,0,.06,0c.09,0,.23.11.36.31.29.45.33,1.11.12,1.76-.23.67-1.01,1.08-2.23,1.22.49-1.97,1.01-3.29,1.7-3.29ZM28.22,64.31c-1.2,3.37-2.98,5.25-4.2,5.62-2.66.8-4.98-.96-5.89-3.1-.84-1.97-.66-4.68,2.36-6.38.58-.33,1.2-.48,1.83-.48,1.97,0,4.15,1.39,6.33,3.02-.14.45-.29.89-.44,1.32ZM55.66,62.24c-1.71-6.95,1.11-12,3.46-13,.48-.21,1.02-.3,1.54-.3.84,0,1.66.25,2.24.73,1.15.95,1.09,2.52.83,3.67-.68,3.09-4.21,6.35-8.07,8.91ZM94.84,41.03c.14-.84.28-1.66.41-2.45.04-.23.08-.46.12-.69,1.05.03,2.08.04,3.11.04-1.08,3.69-2.95,8-5,12.05.36-3.06.89-6.16,1.37-8.95ZM99.55,24.65c.21-.14.42-.21.65-.21.1,0,.2.01.31.04.27.06.35.15.4.25.73,1.19-.38,5.55-1.75,10.71-1.1,0-2.22,0-3.35-.03.9-4.87,2.11-9.64,3.74-10.75ZM82.75,26.26c.09-.05.22-.11.29-.12.12.28.03,1.57-.04,2.52-.11,1.47-.48,3.48-1.03,5.8-1.03-.08-2.04-.14-3.01-.19,1.32-5.19,2.91-7.5,3.78-8.01ZM81.34,36.92c-1.19,4.41-2.9,9.52-4.74,14.02.22-2.49.53-5.38.93-8.71.25-2.06.54-3.88.86-5.48.95.04,1.93.1,2.94.17ZM92.38,40.61c-.81,4.77-1.71,10.08-1.84,14.83-2.13,3.75-4.11,6.76-5.18,8.02-1.84,2.17-4.7,4.4-6.68,3.57-1.74-.73-2.69-2.58-2.53-9.05,3.03-5.79,5.95-14.17,7.7-20.85.18.02.36.03.55.05,2.91.3,5.72.5,8.45.62-.02.13-.04.24-.06.37-.13.79-.27,1.6-.41,2.44ZM106.04,54.69c.92-3.66,2.47-5.98,4.38-6.52.29-.08.57-.12.83-.12.78,0,1.44.3,1.83.68.72.71,1.07,1.59,1.06,2.71-.04,3.02-2.71,7.07-5.33,9.51-.71.66-1.44,1.33-2.18,1.96-1.07-2.01-1.45-4.77-.58-8.23ZM125.8,50.31c-1.7-.77-2.26-1.68-2.55-2.92-.3-1.3-.15-2.62.38-3.38.28-.39.63-.59,1.1-.64.07,0,.13-.01.19-.01.44,0,.65.18.79.36.64.8.88,2.9.08,6.59ZM149.62,43.98c.29-.75.84-1.27,1.68-1.58.16-.06.35-.09.55-.09.58,0,1.27.25,1.76.8.92,1.03.85,2.77-.21,4.89-.51,1.01-1.14,2.11-1.85,3.25-.34-.48-.68-1.04-1.02-1.68-1.07-2.04-1.43-4.23-.91-5.58ZM157.04,59.11c.93,1.38,1.19,2.96.71,4.45-.48,1.48-1.62,2.68-3.06,3.21-1.29.48-2.71.43-3.88-.13-1.08-.51-1.89-1.42-2.28-2.56-.53-1.53-.33-3.08.57-4.48.87-1.34,2.31-2.46,4.23-3.3.32.2.63.38.93.55,1.13.65,2.03,1.17,2.78,2.27Z"/>
    </g>
  </g>
</svg>