<?xml version="1.0" encoding="utf-8"?>
<!-- Generator: Adobe Illustrator 29.8.2, SVG Export Plug-In . SVG Version: 9.03 Build 0)  -->
<!DOCTYPE svg PUBLIC "-//W3C//DTD SVG 1.1//EN" "http://www.w3.org/Graphics/SVG/1.1/DTD/svg11.dtd" [
	<!ENTITY ns_extend "http://ns.adobe.com/Extensibility/1.0/">
	<!ENTITY ns_ai "http://ns.adobe.com/AdobeIllustrator/10.0/">
	<!ENTITY ns_graphs "http://ns.adobe.com/Graphs/1.0/">
	<!ENTITY ns_vars "http://ns.adobe.com/Variables/1.0/">
	<!ENTITY ns_imrep "http://ns.adobe.com/ImageReplacement/1.0/">
	<!ENTITY ns_sfw "http://ns.adobe.com/SaveForWeb/1.0/">
	<!ENTITY ns_custom "http://ns.adobe.com/GenericCustomNamespace/1.0/">
	<!ENTITY ns_adobe_xpath "http://ns.adobe.com/XPath/1.0/">
]>
<svg version="1.1" id="Layer_1" xmlns:x="&ns_extend;" xmlns:i="&ns_ai;" xmlns:graph="&ns_graphs;"
	 xmlns="http://www.w3.org/2000/svg" xmlns:xlink="http://www.w3.org/1999/xlink" x="0px" y="0px" viewBox="200 250 44.1 46"
	 style="enable-background:new 200 250 44.1 46;" xml:space="preserve">
<style type="text/css">
	.st0{fill:#FFFFFF;}
</style>
<metadata><?xpacket begin="﻿" id="W5M0MpCehiHzreSzNTczkc9d"?>
<x:xmpmeta xmlns:x="adobe:ns:meta/" x:xmptk="Adobe XMP Core 9.1-c003 1.000000, 0000/00/00-00:00:00        ">
   <rdf:RDF xmlns:rdf="http://www.w3.org/1999/02/22-rdf-syntax-ns#">
      <rdf:Description rdf:about=""/>
   </rdf:RDF>
</x:xmpmeta>
                                                                                                    
                                                                                                    
                                                                                                    
                                                                                                    
                                                                                                    
                                                                                                    
                                                                                                    
                                                                                                    
                                                                                                    
                                                                                                    
                                                                                                    
                                                                                                    
                                                                                                    
                                                                                                    
                                                                                                    
                                                                                                    
                                                                                                    
                                                                                                    
                                                                                                    
                                                                                                    
                                                                                                    
                                                                                                    
                                                                                                    
                                                                                                    
                                                                                                    
                                                                                                    
                                                                                                    
                                                                                                    
                                                                                                    
                                                                                                    
                                                                                                    
                                                                                                    
                                                                                                    
                                                                                                    
                                                                                                    
                                                                                                    
                                                                                                    
                                                                                                    
                                                                                                    
                                                                                                    
                                                                                                    
                                                                                                    
                                                                                                    
                                                                                                    
                                                                                                    
                                                                                                    
                                                                                                    
                                                                                                    
                                                                                                    
                                                                                                    
                                                                                                    
                                                                                                    
                                                                                                    
                                                                                                    
                                                                                                    
                                                                                                    
                                                                                                    
                                                                                                    
                                                                                                    
                                                                                                    
                                                                                                    
                                                                                                    
                                                                                                    
                                                                                                    
                                                                                                    
                                                                                                    
                                                                                                    
                                                                                                    
                                                                                                    
                                                                                                    
                                                                                                    
                                                                                                    
                                                                                                    
                                                                                                    
                                                                                                    
                                                                                                    
                                                                                                    
                                                                                                    
                                                                                                    
                                                                                                    
                                                                                                    
                                                                                                    
                                                                                                    
                                                                                                    
                                                                                                    
                                                                                                    
                                                                                                    
                                                                                                    
                                                                                                    
                                                                                                    
                                                                                                    
                                                                                                    
                                                                                                    
                                                                                                    
                                                                                                    
                                                                                                    
                                                                                                    
                                                                                                    
                                                                                                    
                                                                                                    
                                                                                                    
                                                                                                    
                                                                                                    
                                                                                                    
                                                                                                    
                                                                                                    
                                                                                                    
                                                                                                    
                                                                                                    
                                                                                                    
                                                                                                    
                                                                                                    
                                                                                                    
                                                                                                    
                                                                                                    
                                                                                                    
                                                                                                    
                                                                                                    
                                                                                                    
                            
<?xpacket end="w"?>
	</metadata>
<g>
	<g>
		<path class="st0" d="M10.4,23c0-2.4-1.8-4.4-4.2-4.7c-0.4,1.5-0.6,3.1-0.6,4.7s0.2,3.2,0.6,4.7C8.5,27.4,10.4,25.4,10.4,23z"/>
		<path class="st0" d="M13.1,21.5c-0.8,0-1.5,0.7-1.5,1.5c0,0.8,0.7,1.5,1.5,1.5c0.8,0,1.5-0.7,1.5-1.5C14.6,22.1,14,21.5,13.1,21.5
			z"/>
		<path class="st0" d="M33.8,23c0,2.5,1.8,4.4,4.2,4.7c0.4-1.5,0.6-3.1,0.6-4.7s-0.2-3.2-0.6-4.7C35.6,18.5,33.8,20.5,33.8,23z"/>
		<path class="st0" d="M31,21.5c-0.8,0-1.5,0.7-1.5,1.5c0,0.8,0.7,1.5,1.5,1.5c0.8,0,1.5-0.7,1.5-1.5C32.5,22.1,31.8,21.5,31,21.5z"
			/>
		<path class="st0" d="M22,34.7c-2.5,0-4.4,1.8-4.7,4.2c1.5,0.4,3.1,0.6,4.7,0.6c1.6,0,3.2-0.2,4.7-0.6C26.5,36.6,24.5,34.7,22,34.7
			z"/>
		<path class="st0" d="M22,30.4c-0.8,0-1.5,0.7-1.5,1.5c0,0.8,0.7,1.5,1.5,1.5c0.8,0,1.5-0.7,1.5-1.5C23.5,31.1,22.9,30.4,22,30.4z"
			/>
		<path class="st0" d="M22,11.3c2.4,0,4.4-1.8,4.7-4.2c-1.5-0.4-3.1-0.6-4.7-0.6c-1.6,0-3.2,0.2-4.7,0.6C17.6,9.5,19.6,11.3,22,11.3
			z"/>
		<path class="st0" d="M22,12.6c-0.8,0-1.5,0.7-1.5,1.5c0,0.8,0.7,1.5,1.5,1.5c0.8,0,1.5-0.7,1.5-1.5C23.5,13.3,22.9,12.6,22,12.6z"
			/>
		<path class="st0" d="M30.3,31.3c-1.7,1.7-1.9,4.4-0.4,6.3c2.8-1.6,5.1-3.9,6.7-6.7C34.8,29.4,32,29.6,30.3,31.3z"/>
		<path class="st0" d="M27.3,28.2c-0.6,0.6-0.6,1.5,0,2.1c0.6,0.6,1.5,0.6,2.1,0c0.6-0.6,0.6-1.5,0-2.1
			C28.8,27.7,27.9,27.7,27.3,28.2z"/>
		<path class="st0" d="M13.8,14.7c1.7-1.7,1.9-4.4,0.4-6.3c-2.8,1.6-5.1,3.9-6.7,6.7C9.4,16.5,12,16.4,13.8,14.7z"/>
		<path class="st0" d="M14.7,15.6c-0.6,0.6-0.6,1.5,0,2.1c0.6,0.6,1.5,0.6,2.1,0c0.6-0.6,0.6-1.5,0-2.1C16.2,15,15.3,15,14.7,15.6z"
			/>
		<path class="st0" d="M30.3,14.7c1.7,1.7,4.4,1.9,6.3,0.4c-1.6-2.8-3.9-5.1-6.7-6.7C28.5,10.3,28.6,13,30.3,14.7z"/>
		<path class="st0" d="M29.4,17.7c0.6-0.6,0.6-1.5,0-2.1c-0.6-0.6-1.5-0.6-2.1,0c-0.6,0.6-0.6,1.5,0,2.1
			C27.9,18.3,28.8,18.3,29.4,17.7z"/>
		<path class="st0" d="M13.8,31.2c-1.7-1.7-4.4-1.9-6.3-0.4c1.6,2.8,3.9,5.1,6.7,6.7C15.6,35.7,15.5,33,13.8,31.2z"/>
		<path class="st0" d="M14.7,28.2c-0.6,0.6-0.6,1.5,0,2.1c0.6,0.6,1.5,0.6,2.1,0c0.6-0.6,0.6-1.5,0-2.1
			C16.2,27.6,15.2,27.6,14.7,28.2z"/>
	</g>
</g>
</svg>
