<?xml version="1.0" encoding="utf-8"?>
<!-- Generator: Adobe Illustrator 29.8.2, SVG Export Plug-In . SVG Version: 9.03 Build 0)  -->
<!DOCTYPE svg PUBLIC "-//W3C//DTD SVG 1.1//EN" "http://www.w3.org/Graphics/SVG/1.1/DTD/svg11.dtd" [
	<!ENTITY ns_extend "http://ns.adobe.com/Extensibility/1.0/">
	<!ENTITY ns_ai "http://ns.adobe.com/AdobeIllustrator/10.0/">
	<!ENTITY ns_graphs "http://ns.adobe.com/Graphs/1.0/">
	<!ENTITY ns_vars "http://ns.adobe.com/Variables/1.0/">
	<!ENTITY ns_imrep "http://ns.adobe.com/ImageReplacement/1.0/">
	<!ENTITY ns_sfw "http://ns.adobe.com/SaveForWeb/1.0/">
	<!ENTITY ns_custom "http://ns.adobe.com/GenericCustomNamespace/1.0/">
	<!ENTITY ns_adobe_xpath "http://ns.adobe.com/XPath/1.0/">
]>
<svg version="1.1" id="Layer_1" xmlns:x="&ns_extend;" xmlns:i="&ns_ai;" xmlns:graph="&ns_graphs;"
	 xmlns="http://www.w3.org/2000/svg" xmlns:xlink="http://www.w3.org/1999/xlink" x="0px" y="0px" viewBox="0 0 353.9 322.9"
	 style="enable-background:new 0 0 353.9 322.9;" xml:space="preserve">
<style type="text/css">
	.st0{fill:#0000CD;}
</style>
<metadata><?xpacket begin="﻿" id="W5M0MpCehiHzreSzNTczkc9d"?>
<x:xmpmeta xmlns:x="adobe:ns:meta/" x:xmptk="Adobe XMP Core 9.1-c003 1.000000, 0000/00/00-00:00:00        ">
   <rdf:RDF xmlns:rdf="http://www.w3.org/1999/02/22-rdf-syntax-ns#">
      <rdf:Description rdf:about=""/>
   </rdf:RDF>
</x:xmpmeta>
                                                                                                    
                                                                                                    
                                                                                                    
                                                                                                    
                                                                                                    
                                                                                                    
                                                                                                    
                                                                                                    
                                                                                                    
                                                                                                    
                                                                                                    
                                                                                                    
                                                                                                    
                                                                                                    
                                                                                                    
                                                                                                    
                                                                                                    
                                                                                                    
                                                                                                    
                                                                                                    
                                                                                                    
                                                                                                    
                                                                                                    
                                                                                                    
                                                                                                    
                                                                                                    
                                                                                                    
                                                                                                    
                                                                                                    
                                                                                                    
                                                                                                    
                                                                                                    
                                                                                                    
                                                                                                    
                                                                                                    
                                                                                                    
                                                                                                    
                                                                                                    
                                                                                                    
                                                                                                    
                                                                                                    
                                                                                                    
                                                                                                    
                                                                                                    
                                                                                                    
                                                                                                    
                                                                                                    
                                                                                                    
                                                                                                    
                                                                                                    
                                                                                                    
                                                                                                    
                                                                                                    
                                                                                                    
                                                                                                    
                                                                                                    
                                                                                                    
                                                                                                    
                                                                                                    
                                                                                                    
                                                                                                    
                                                                                                    
                                                                                                    
                                                                                                    
                                                                                                    
                                                                                                    
                                                                                                    
                                                                                                    
                                                                                                    
                                                                                                    
                                                                                                    
                                                                                                    
                                                                                                    
                                                                                                    
                                                                                                    
                                                                                                    
                                                                                                    
                                                                                                    
                                                                                                    
                                                                                                    
                                                                                                    
                                                                                                    
                                                                                                    
                                                                                                    
                                                                                                    
                                                                                                    
                                                                                                    
                                                                                                    
                                                                                                    
                                                                                                    
                                                                                                    
                                                                                                    
                                                                                                    
                                                                                                    
                                                                                                    
                                                                                                    
                                                                                                    
                                                                                                    
                                                                                                    
                                                                                                    
                                                                                                    
                                                                                                    
                                                                                                    
                                                                                                    
                                                                                                    
                                                                                                    
                                                                                                    
                                                                                                    
                                                                                                    
                                                                                                    
                                                                                                    
                                                                                                    
                                                                                                    
                                                                                                    
                                                                                                    
                                                                                                    
                                                                                                    
                                                                                                    
                                                                                                    
                            
<?xpacket end="w"?>
	</metadata>
<g>
	<path class="st0" d="M20.4,267.8h10.4c1.4,0,2.6,0.3,3.7,0.7c1,0.6,1.9,1.3,2.4,2.1c0.6,0.9,0.9,2,0.9,3.3s-0.4,2.7-1.1,3.7
		c-0.7,1-1.9,1.7-3.1,2c1.6,0.4,2.7,1.1,3.6,2.1s1.1,2.3,1.1,3.8s-0.3,2.6-0.9,3.7c-0.6,1-1.4,1.9-2.6,2.4c-1.1,0.6-2.3,0.9-3.8,0.9
		H20.4v-24.7V267.8z M30.1,278.3c0.9,0,1.6-0.1,2.3-0.4c0.7-0.3,1.1-0.9,1.6-1.4s0.6-1.3,0.6-2.1c0-1.1-0.4-2.1-1.1-2.9
		c-0.7-0.7-1.7-1-3-1h-6.6v8h6.3V278.3z M30.7,289.6c1.3,0,2.3-0.4,3-1.1c0.7-0.9,1.1-1.9,1.1-3.1s-0.1-1.7-0.6-2.3
		c-0.4-0.7-0.9-1.1-1.6-1.6c-0.7-0.4-1.4-0.6-2.3-0.6h-6.6v8.8h6.8L30.7,289.6z"/>
	<path class="st0" d="M47.5,291.6c-1.4-0.9-2.6-2-3.3-3.4c-0.7-1.4-1.1-3.1-1.1-5.1v-15.3h3.4V283c0,2.1,0.6,3.8,1.6,5.1
		s2.4,1.9,4.3,1.9c1.9,0,3.4-0.6,4.4-1.9c1-1.1,1.6-2.9,1.6-5v-15.3h3.4v15.3c0,2-0.4,3.7-1.1,5.1c-0.7,1.4-1.9,2.6-3.3,3.4
		s-3.1,1.1-5,1.1s-3.6-0.4-5-1.1L47.5,291.6z"/>
	<path class="st0" d="M69.3,290.9c-1.7-1.3-2.9-3.1-3.3-5.6h3.4c0.3,1.6,1,2.7,2.3,3.6c1.1,0.9,2.7,1.3,4.4,1.3s2.1-0.1,3-0.6
		s1.6-0.9,2-1.6c0.4-0.7,0.7-1.4,0.7-2.3s-0.3-1.9-0.9-2.4c-0.6-0.6-1.4-1-2.6-1.3l-6-1c-2-0.3-3.4-1-4.4-2.1
		c-1-1.1-1.4-2.6-1.4-4.1c0-1.6,0.4-2.7,1.1-3.8c0.7-1.1,1.9-2,3.1-2.6c1.3-0.6,2.9-0.9,4.7-0.9c2.7,0,4.8,0.7,6.4,2
		s2.7,3.1,3.1,5.4h-3.4c-0.3-1.6-1-2.7-2.1-3.4c-1.1-0.7-2.4-1.1-4-1.1s-2.1,0.1-2.9,0.6c-0.9,0.4-1.4,0.9-2,1.4
		c-0.4,0.6-0.7,1.4-0.7,2.3s0.3,1.7,0.9,2.3c0.6,0.6,1.4,1,2.6,1.1l6,1c2,0.3,3.4,1,4.4,2.1c1,1.1,1.6,2.6,1.6,4.3s-0.4,2.9-1.1,4
		c-0.7,1.1-1.9,2-3.3,2.7c-1.4,0.6-3,1-4.8,1c-2.9,0-5.1-0.7-6.8-2L69.3,290.9z"/>
	<path class="st0" d="M90.1,267.8h3.4v24.7h-3.4V267.8z"/>
	<path class="st0" d="M99.5,267.8h3.7l11.8,19.5v-19.5h3.3v24.7h-3.7l-11.8-19.5v19.5h-3.3C99.5,292.4,99.5,267.8,99.5,267.8z"/>
	<path class="st0" d="M124.5,267.8h15.7v2.9h-12.3v7.7h11.5v2.7h-11.5v8.4h12.5v2.9h-16v-24.7L124.5,267.8z"/>
	<path class="st0" d="M147,290.9c-1.7-1.3-2.9-3.1-3.3-5.6h3.4c0.3,1.6,1,2.7,2.3,3.6c1.1,0.9,2.7,1.3,4.4,1.3s2.1-0.1,3-0.6
		c0.9-0.4,1.6-0.9,2-1.6c0.4-0.7,0.7-1.4,0.7-2.3s-0.3-1.9-0.9-2.4c-0.6-0.6-1.4-1-2.6-1.3l-6-1c-2-0.3-3.4-1-4.4-2.1
		c-1-1.1-1.4-2.6-1.4-4.1c0-1.6,0.4-2.7,1.1-3.8c0.7-1.1,1.9-2,3.1-2.6c1.3-0.6,2.9-0.9,4.7-0.9c2.7,0,4.8,0.7,6.4,2
		s2.7,3.1,3.1,5.4h-3.4c-0.3-1.6-1-2.7-2.1-3.4s-2.4-1.1-4-1.1s-2.1,0.1-2.9,0.6c-0.9,0.4-1.4,0.9-2,1.4c-0.4,0.6-0.7,1.4-0.7,2.3
		s0.3,1.7,0.9,2.3c0.6,0.6,1.4,1,2.6,1.1l6,1c2,0.3,3.4,1,4.4,2.1c1,1.1,1.6,2.6,1.6,4.3s-0.4,2.9-1.1,4c-0.7,1.1-1.9,2-3.3,2.7
		c-1.4,0.6-3,1-4.8,1c-2.9,0-5.1-0.7-6.8-2L147,290.9z"/>
	<path class="st0" d="M169.5,290.9c-1.7-1.3-2.9-3.1-3.3-5.6h3.4c0.3,1.6,1,2.7,2.3,3.6c1.1,0.9,2.7,1.3,4.4,1.3s2.1-0.1,3-0.6
		c0.9-0.4,1.6-0.9,2-1.6c0.4-0.7,0.7-1.4,0.7-2.3s-0.3-1.9-0.9-2.4c-0.6-0.6-1.4-1-2.6-1.3l-6-1c-2-0.3-3.4-1-4.4-2.1
		c-1-1.1-1.4-2.6-1.4-4.1c0-1.6,0.4-2.7,1.1-3.8c0.7-1.1,1.9-2,3.1-2.6c1.3-0.6,2.9-0.9,4.7-0.9c2.7,0,4.8,0.7,6.4,2
		s2.7,3.1,3.1,5.4h-3.4c-0.3-1.6-1-2.7-2.1-3.4c-1.1-0.7-2.4-1.1-4-1.1s-2.1,0.1-2.9,0.6c-0.9,0.4-1.4,0.9-2,1.4
		c-0.4,0.6-0.7,1.4-0.7,2.3s0.3,1.7,0.9,2.3c0.6,0.6,1.4,1,2.6,1.1l6,1c2,0.3,3.4,1,4.4,2.1c1,1.1,1.6,2.6,1.6,4.3s-0.4,2.9-1.1,4
		c-0.7,1.1-1.9,2-3.3,2.7c-1.4,0.6-3,1-4.8,1c-2.9,0-5.1-0.7-6.8-2L169.5,290.9z"/>
	<path class="st0" d="M200,290.9c-1.7-1.3-2.9-3.1-3.3-5.6h3.4c0.3,1.6,1,2.7,2.3,3.6c1.1,0.9,2.7,1.3,4.4,1.3s2.1-0.1,3-0.6
		s1.6-0.9,2-1.6c0.4-0.7,0.7-1.4,0.7-2.3s-0.3-1.9-0.9-2.4s-1.4-1-2.6-1.3l-6-1c-2-0.3-3.4-1-4.4-2.1c-1-1.1-1.4-2.6-1.4-4.1
		c0-1.6,0.4-2.7,1.1-3.8c0.7-1.1,1.9-2,3.1-2.6c1.3-0.6,2.9-0.9,4.7-0.9c2.7,0,4.8,0.7,6.4,2c1.6,1.3,2.7,3.1,3.1,5.4h-3.4
		c-0.3-1.6-1-2.7-2.1-3.4s-2.4-1.1-4-1.1c-1.6,0-2.1,0.1-2.9,0.6c-0.9,0.4-1.4,0.9-2,1.4c-0.4,0.6-0.7,1.4-0.7,2.3s0.3,1.7,0.9,2.3
		s1.4,1,2.6,1.1l6,1c2,0.3,3.4,1,4.4,2.1c1,1.1,1.6,2.6,1.6,4.3s-0.4,2.9-1.1,4c-0.7,1.1-1.9,2-3.3,2.7c-1.4,0.6-3,1-4.8,1
		c-2.9,0-5.1-0.7-6.8-2V290.9z"/>
	<path class="st0" d="M224.8,291.1c-1.7-1.1-3-2.6-3.8-4.6c-0.9-2-1.4-4.1-1.4-6.7s0.4-4.7,1.4-6.7c0.9-2,2.3-3.4,3.8-4.6
		c1.7-1.1,3.6-1.6,5.7-1.6c2.1,0,3.3,0.3,4.7,1c1.4,0.7,2.6,1.7,3.4,3c0.9,1.3,1.4,2.9,1.9,4.7h-3.4c-0.3-1.9-1-3.3-2.1-4.3
		c-1.1-1-2.6-1.6-4.3-1.6s-2.9,0.4-4,1.1s-2,2-2.6,3.4c-0.6,1.4-0.9,3.3-0.9,5.3c0,2,0.3,3.7,0.9,5.3c0.6,1.4,1.4,2.6,2.6,3.4
		c1.1,0.9,2.4,1.1,4,1.1s3.1-0.6,4.3-1.6s1.9-2.4,2.1-4.3h3.4c-0.3,1.9-0.9,3.4-1.9,4.7c-0.9,1.3-2,2.3-3.4,3c-1.4,0.7-3,1-4.7,1
		s-4-0.6-5.7-1.6V291.1z"/>
	<path class="st0" d="M245.1,292.3v-24.7h3.4v10.5h12v-10.5h3.4v24.7h-3.4v-11.1h-12v11.1H245.1z"/>
	<path class="st0" d="M273.6,291.1c-1.6-1.1-2.9-2.6-3.7-4.6s-1.3-4.1-1.3-6.6s0.4-4.6,1.3-6.6c0.9-2,2.1-3.4,3.7-4.6
		c1.6-1.1,3.4-1.7,5.7-1.7s4,0.6,5.6,1.7c1.6,1.1,2.9,2.6,3.7,4.6c0.9,2,1.3,4.1,1.3,6.6s-0.4,4.6-1.3,6.6c-0.9,2-2.1,3.4-3.7,4.6
		s-3.4,1.7-5.6,1.7C277.1,292.9,275.3,292.3,273.6,291.1z M273,285.3c0.6,1.4,1.3,2.6,2.4,3.4c1,0.9,2.3,1.1,3.8,1.1
		s2.7-0.4,3.8-1.1c1.1-0.7,1.9-1.9,2.4-3.4c0.6-1.4,0.9-3.3,0.9-5.3c0-2-0.3-3.8-0.9-5.3c-0.6-1.4-1.3-2.6-2.4-3.4
		c-1.1-0.9-2.3-1.1-3.8-1.1s-2.7,0.4-3.8,1.1c-1,0.9-1.9,1.9-2.4,3.4c-0.6,1.4-0.9,3.3-0.9,5.3C272.1,282,272.4,283.9,273,285.3z"/>
	<path class="st0" d="M298.4,291.1c-1.6-1.1-2.9-2.6-3.7-4.6c-0.9-2-1.3-4.1-1.3-6.6s0.4-4.6,1.3-6.6c0.9-2,2.1-3.4,3.7-4.6
		c1.6-1.1,3.4-1.7,5.7-1.7c2.3,0,4,0.6,5.6,1.7c1.6,1.1,2.9,2.6,3.7,4.6c0.9,2,1.3,4.1,1.3,6.6s-0.4,4.6-1.3,6.6s-2.1,3.4-3.7,4.6
		c-1.6,1.1-3.4,1.7-5.6,1.7C301.9,292.9,300.1,292.3,298.4,291.1z M297.8,285.3c0.6,1.4,1.3,2.6,2.4,3.4c1,0.9,2.3,1.1,3.8,1.1
		c1.6,0,2.7-0.4,3.8-1.1c1.1-0.7,1.9-1.9,2.4-3.4c0.6-1.4,0.9-3.3,0.9-5.3c0-2-0.3-3.8-0.9-5.3c-0.6-1.4-1.3-2.6-2.4-3.4
		c-1.1-0.9-2.3-1.1-3.8-1.1c-1.6,0-2.7,0.4-3.8,1.1c-1,0.9-1.9,1.9-2.4,3.4c-0.6,1.4-0.9,3.3-0.9,5.3
		C296.9,282,297.2,283.9,297.8,285.3z"/>
	<path class="st0" d="M319.3,267.8h3.4v21.8h12.7v2.9h-16.1L319.3,267.8L319.3,267.8z"/>
</g>
<g>
	<polygon class="st0" points="151,206.1 151,240.7 173.5,240.7 173.5,234.7 157.6,234.7 157.6,226 172.1,226 172.1,220.2 
		157.6,220.2 157.6,212.2 173.5,212.2 173.5,206.1 	"/>
	<path class="st0" d="M123.7,211.7h-4.8v11.7h4.8c3.8,0,6.6-1.8,6.6-5.8S127.5,211.8,123.7,211.7 M124.1,229h-5.2v11.8h-6.6v-34.7
		h11.8c7.4,0,13.1,3.3,13.1,11.4c0,8.1-5.8,11.4-13.1,11.4"/>
	<polygon class="st0" points="230.6,206.1 230.6,212.2 238.7,212.2 238.7,234.7 230.6,234.7 230.6,240.7 253.4,240.7 253.4,234.7 
		245.3,234.7 245.3,212.2 253.4,212.2 253.4,206.1 	"/>
	<path class="st0" d="M208.6,216.9c0,4.2-2.4,5.5-6.6,5.5h-5.5v-10.6h5.5C206.5,211.8,208.6,213.5,208.6,216.9 M215.5,216.9
		c0-8.1-5.5-10.7-12.8-10.7h-12.8v34.6h6.6V228h5.5c0.3,0,0.6,0,0.9,0l6.7,12.8h7.3l-7.4-14.2C213.1,225,215.5,221.9,215.5,216.9"/>
	<path class="st0" d="M282.3,212.3l4.7,15.3h-9.5L282.3,212.3L282.3,212.3z M278,206.1l-11.4,34.6h6.9l2.4-7.6h12.9l2.4,7.6h6.9
		l-11.4-34.6H278L278,206.1z"/>
	<polygon class="st0" points="312.9,206.1 312.9,240.7 335.4,240.7 335.4,234.7 319.4,234.7 319.4,206.1 	"/>
	<polygon class="st0" points="86.2,206.1 77.9,226.5 69.6,206.1 60.3,206.1 60.3,240.7 66.5,240.7 66.5,214.9 74.5,233.1 
		74.8,233.1 81,233.1 81.4,233.1 89.3,214.9 89.3,240.7 95.6,240.7 95.6,206.1 	"/>
	<polygon class="st0" points="20.4,206.1 20.4,212.2 28.5,212.2 28.5,234.7 20.4,234.7 20.4,240.7 43.2,240.7 43.2,234.7 
		35.1,234.7 35.1,212.2 43.2,212.2 43.2,206.1 	"/>
</g>
<g>
	<polygon class="st0" points="189,56.8 227.9,56.8 227.9,27.5 118.4,27.5 118.4,56.8 157.3,56.8 157.3,149.5 118.4,149.5 
		118.4,178.3 227.9,178.3 227.9,149.5 189,149.5 	"/>
	<path class="st0" d="M201.8,69.9v24.4H221c2.6,0,5-0.7,7-1.7c2.1-1.1,3.5-2.6,4.8-4.4c1.3-1.7,1.7-3.9,1.7-6.5
		c0-3.5-1.3-6.5-3.5-8.7c-2.2-2.2-5.2-3.1-9.2-3.1H201.8z"/>
	<path class="st0" d="M230.5,109.2c-2.4-1.2-4.6-1.9-7.4-1.9h-21.3v28.7H224c4.2,0,7.4-1.9,9.7-4.2c2.3-2.8,3.7-6,3.7-10.2
		C237.5,119.1,236.6,112.4,230.5,109.2z"/>
</g>
</svg>
