<?xml version="1.0" encoding="utf-8"?>
<!-- Generator: Adobe Illustrator 29.8.2, SVG Export Plug-In . SVG Version: 9.03 Build 0)  -->
<!DOCTYPE svg PUBLIC "-//W3C//DTD SVG 1.1//EN" "http://www.w3.org/Graphics/SVG/1.1/DTD/svg11.dtd" [
	<!ENTITY ns_extend "http://ns.adobe.com/Extensibility/1.0/">
	<!ENTITY ns_ai "http://ns.adobe.com/AdobeIllustrator/10.0/">
	<!ENTITY ns_graphs "http://ns.adobe.com/Graphs/1.0/">
	<!ENTITY ns_vars "http://ns.adobe.com/Variables/1.0/">
	<!ENTITY ns_imrep "http://ns.adobe.com/ImageReplacement/1.0/">
	<!ENTITY ns_sfw "http://ns.adobe.com/SaveForWeb/1.0/">
	<!ENTITY ns_custom "http://ns.adobe.com/GenericCustomNamespace/1.0/">
	<!ENTITY ns_adobe_xpath "http://ns.adobe.com/XPath/1.0/">
]>
<svg version="1.1" id="Layer_1" xmlns:x="&ns_extend;" xmlns:i="&ns_ai;" xmlns:graph="&ns_graphs;"
	 xmlns="http://www.w3.org/2000/svg" xmlns:xlink="http://www.w3.org/1999/xlink" x="0px" y="0px" viewBox="0 0 218.6 59.1"
	 style="enable-background:new 0 0 218.6 59.1;" xml:space="preserve">
<metadata><?xpacket begin="﻿" id="W5M0MpCehiHzreSzNTczkc9d"?>
<x:xmpmeta xmlns:x="adobe:ns:meta/" x:xmptk="Adobe XMP Core 9.1-c003 1.000000, 0000/00/00-00:00:00        ">
   <rdf:RDF xmlns:rdf="http://www.w3.org/1999/02/22-rdf-syntax-ns#">
      <rdf:Description rdf:about=""/>
   </rdf:RDF>
</x:xmpmeta>
                                                                                                    
                                                                                                    
                                                                                                    
                                                                                                    
                                                                                                    
                                                                                                    
                                                                                                    
                                                                                                    
                                                                                                    
                                                                                                    
                                                                                                    
                                                                                                    
                                                                                                    
                                                                                                    
                                                                                                    
                                                                                                    
                                                                                                    
                                                                                                    
                                                                                                    
                                                                                                    
                                                                                                    
                                                                                                    
                                                                                                    
                                                                                                    
                                                                                                    
                                                                                                    
                                                                                                    
                                                                                                    
                                                                                                    
                                                                                                    
                                                                                                    
                                                                                                    
                                                                                                    
                                                                                                    
                                                                                                    
                                                                                                    
                                                                                                    
                                                                                                    
                                                                                                    
                                                                                                    
                                                                                                    
                                                                                                    
                                                                                                    
                                                                                                    
                                                                                                    
                                                                                                    
                                                                                                    
                                                                                                    
                                                                                                    
                                                                                                    
                                                                                                    
                                                                                                    
                                                                                                    
                                                                                                    
                                                                                                    
                                                                                                    
                                                                                                    
                                                                                                    
                                                                                                    
                                                                                                    
                                                                                                    
                                                                                                    
                                                                                                    
                                                                                                    
                                                                                                    
                                                                                                    
                                                                                                    
                                                                                                    
                                                                                                    
                                                                                                    
                                                                                                    
                                                                                                    
                                                                                                    
                                                                                                    
                                                                                                    
                                                                                                    
                                                                                                    
                                                                                                    
                                                                                                    
                                                                                                    
                                                                                                    
                                                                                                    
                                                                                                    
                                                                                                    
                                                                                                    
                                                                                                    
                                                                                                    
                                                                                                    
                                                                                                    
                                                                                                    
                                                                                                    
                                                                                                    
                                                                                                    
                                                                                                    
                                                                                                    
                                                                                                    
                                                                                                    
                                                                                                    
                                                                                                    
                                                                                                    
                                                                                                    
                                                                                                    
                                                                                                    
                                                                                                    
                                                                                                    
                                                                                                    
                                                                                                    
                                                                                                    
                                                                                                    
                                                                                                    
                                                                                                    
                                                                                                    
                                                                                                    
                                                                                                    
                                                                                                    
                                                                                                    
                                                                                                    
                                                                                                    
                                                                                                    
                            
<?xpacket end="w"?>
	</metadata>
<path d="M19.8,41.9h4.9l9.7-29.2h-4.4l-7.7,23.5l-7.7-23.5h-4.5L19.8,41.9z M40.1,38.6c-2.1,0-2.9-1.2-2.9-2.6
	c0-2.1,1.7-3.5,4.5-3.5h4.1V33C45.7,36.8,42.7,38.6,40.1,38.6L40.1,38.6z M39.5,42.2c2.8,0,5-1.1,6.4-3.1l0.4,2.7h3.6V28.8
	c0-5.9-3.4-8.1-7.8-8.1c-4.3,0-6.8,2.2-7.8,5.5l3.7,1c0.7-1.9,1.9-2.8,3.9-2.8c2,0,3.7,1.1,3.7,3.9v0.9h-3.8c-5.4,0-9,2.5-9,6.9
	C32.9,40.1,35.8,42.2,39.5,42.2L39.5,42.2z M60.9,42.2c4.3,0,7.4-2.6,7.4-6.5c0-3.6-2.9-5.1-5.8-6.2c-2.1-0.8-4-1.4-4-3.2
	c0-1.2,0.9-2,2.3-2c1.3,0,2.5,0.7,3.4,2l2.7-2.6c-1.3-1.7-3.3-3.1-6-3.1c-3.7,0-6.5,2.5-6.5,6c0,3.1,2.3,4.7,4.7,5.6
	c1.7,0.7,4.9,1.6,4.9,3.8c0,1.5-1.3,2.4-2.9,2.4c-2.5,0-4.2-2-5-3.9l-3.4,2C53.7,39.1,56.2,42.2,60.9,42.2L60.9,42.2z M78,38.6
	c-2,0-2.9-1.2-2.9-2.6c0-2.1,1.7-3.5,4.4-3.5h4V33C83.6,36.8,80.6,38.6,78,38.6L78,38.6z M77.5,42.2c2.7,0,4.9-1.1,6.3-3.1l0.4,2.7
	h3.6V28.8c0-5.9-3.4-8.1-7.9-8.1c-4.5,0-7,2.2-8.1,5.5l3.8,1c0.7-1.9,2-2.9,4.1-2.9c2.1,0,3.9,1.1,3.9,3.9v0.9h-3.7
	c-5.5,0-8.9,2.6-8.9,6.9C70.9,40.1,73.8,42.2,77.5,42.2L77.5,42.2z M92.6,41.9h4.2V31.8l8.1,10.1h5.3l-9.3-11.5l8.5-9.4h-5l-7.5,8.4
	V12.7h-4.2V41.9z M112.4,41.9h4.3v-9.5c0-5.3,2.3-7.6,5.1-7.6c0.7,0,1.6,0.1,2.2,0.3l0.7-3.9c-0.7-0.2-1.8-0.5-3-0.5
	c-2.6,0-4.2,1.5-5.2,3.2l-0.4-2.8h-3.8V41.9z M135.4,42.1c6.5,0,10.3-4.6,10.3-10.7c0-6.1-3.8-10.7-10.3-10.7
	c-6.4,0-10.3,4.6-10.3,10.7C125.1,37.5,129,42.1,135.4,42.1L135.4,42.1z M135.4,38.3c-3.8,0-5.7-3.1-5.7-6.9s1.9-6.9,5.7-6.9
	c3.8,0,5.7,3.1,5.7,6.9S139.2,38.3,135.4,38.3L135.4,38.3z M149.4,41.9h4.3v-8.5c0-5.6,2.6-8.9,5.6-8.9c1.7,0,2.9,1.1,2.9,3.9v13.5
	h4.3V27.3c0-4.2-2.3-6.6-6.3-6.6c-3.1,0-5.2,1.6-6.6,3.3l-0.4-3h-3.8V41.9z M177.3,38.6c-2,0-2.9-1.2-2.9-2.6c0-2.1,1.7-3.5,4.4-3.5
	h4V33C182.8,36.8,179.9,38.6,177.3,38.6L177.3,38.6z M176.7,42.2c2.7,0,4.9-1.1,6.3-3.1l0.4,2.7h3.6V28.8c0-5.9-3.4-8.1-7.9-8.1
	c-4.5,0-7,2.2-8.1,5.5l3.8,1c0.7-1.9,2-2.9,4.1-2.9c2.1,0,3.9,1.1,3.9,3.9v0.9h-3.7c-5.5,0-8.9,2.6-8.9,6.9
	C170.2,40.1,173.1,42.2,176.7,42.2L176.7,42.2z M191.9,41.9h4.3v-8.5c0-5.6,2.6-8.9,5.6-8.9c1.7,0,2.9,1.1,2.9,3.9v13.5h4.3V27.3
	c0-4.2-2.3-6.6-6.3-6.6c-3.1,0-5.2,1.6-6.6,3.3l-0.4-3h-3.8V41.9z"/>
</svg>
